<svg width="20" height="17" viewBox="0 0 20 17" fill="none" xmlns="http://www.w3.org/2000/svg">
<path d="M12.1827 1.4082H7.79436L5.60021 4.04118H2.96723C2.50169 4.04118 2.05522 4.22612 1.72604 4.5553C1.39685 4.88449 1.21191 5.33096 1.21191 5.7965V13.6954C1.21191 14.161 1.39685 14.6074 1.72604 14.9366C2.05522 15.2658 2.50169 15.4508 2.96723 15.4508H17.0098C17.4753 15.4508 17.9218 15.2658 18.251 14.9366C18.5802 14.6074 18.7651 14.161 18.7651 13.6954V5.7965C18.7651 5.33096 18.5802 4.88449 18.251 4.5553C17.9218 4.22612 17.4753 4.04118 17.0098 4.04118H14.3768L12.1827 1.4082Z" stroke="white" stroke-width="1.75532" stroke-linecap="round" stroke-linejoin="round"/>
<path d="M9.98851 11.9401C11.4427 11.9401 12.6215 10.7613 12.6215 9.30714C12.6215 7.85299 11.4427 6.67416 9.98851 6.67416C8.53436 6.67416 7.35553 7.85299 7.35553 9.30714C7.35553 10.7613 8.53436 11.9401 9.98851 11.9401Z" stroke="white" stroke-width="1.75532" stroke-linecap="round" stroke-linejoin="round"/>
</svg>
