<svg width="21" height="21" viewBox="0 0 21 21" fill="none" xmlns="http://www.w3.org/2000/svg">
<path d="M14.4493 7.04904C14.6971 7.04904 14.8979 6.84817 14.8979 6.60039C14.8979 6.35261 14.6971 6.15174 14.4493 6.15174C14.2015 6.15174 14.0006 6.35261 14.0006 6.60039C14.0006 6.84817 14.2015 7.04904 14.4493 7.04904Z" fill="black"/>
<path d="M1.96429 15.4961C1.62772 15.8326 1.43858 16.289 1.43848 16.7649V18.7138C1.43848 18.9518 1.53301 19.18 1.70129 19.3483C1.86956 19.5166 2.0978 19.6111 2.33577 19.6111H5.02767C5.26564 19.6111 5.49387 19.5166 5.66215 19.3483C5.83043 19.18 5.92496 18.9518 5.92496 18.7138V17.8165C5.92496 17.5786 6.0195 17.3503 6.18778 17.182C6.35605 17.0138 6.58428 16.9192 6.82226 16.9192H7.71956C7.95754 16.9192 8.18577 16.8247 8.35404 16.6564C8.52232 16.4881 8.61686 16.2599 8.61686 16.0219V15.1246C8.61686 14.8867 8.71139 14.6584 8.87967 14.4902C9.04794 14.3219 9.27617 14.2273 9.51415 14.2273H9.66849C10.1444 14.2272 10.6008 14.0381 10.9373 13.7015L11.6677 12.9711C12.9148 13.4055 14.2724 13.4039 15.5184 12.9664C16.7644 12.5289 17.8251 11.6816 18.5269 10.5629C19.2287 9.44422 19.5301 8.12049 19.3818 6.80825C19.2335 5.49601 18.6443 4.27295 17.7105 3.33915C16.7767 2.40535 15.5536 1.81609 14.2414 1.66777C12.9291 1.51945 11.6054 1.82085 10.4867 2.52267C9.36804 3.22449 8.52066 4.28517 8.08319 5.5312C7.64572 6.77723 7.64405 8.13484 8.07848 9.38193L1.96429 15.4961Z" stroke="black" stroke-width="1.79459" stroke-linecap="round" stroke-linejoin="round"/>
<path d="M14.4493 7.04904C14.6971 7.04904 14.8979 6.84817 14.8979 6.60039C14.8979 6.35261 14.6971 6.15174 14.4493 6.15174C14.2015 6.15174 14.0006 6.35261 14.0006 6.60039C14.0006 6.84817 14.2015 7.04904 14.4493 7.04904Z" stroke="black" stroke-width="1.79459" stroke-linecap="round" stroke-linejoin="round"/>
</svg>
