<svg width="19" height="18" viewBox="0 0 19 18" fill="none" xmlns="http://www.w3.org/2000/svg">
<path d="M10.9555 1.29297C12.5695 1.46304 14.0772 2.17892 15.2291 3.32222C16.3811 4.46552 17.1083 5.96775 17.2905 7.58048M10.9555 4.46048C11.7343 4.61406 12.449 4.99819 13.0067 5.56302C13.5645 6.12785 13.9396 6.8473 14.0834 7.62799M17.2509 13.1079V15.4835C17.2518 15.704 17.2066 15.9223 17.1183 16.1244C17.0299 16.3265 16.9004 16.5079 16.7378 16.657C16.5753 16.8061 16.3835 16.9196 16.1746 16.9902C15.9656 17.0609 15.7443 17.0871 15.5246 17.0673C13.0879 16.8025 10.7472 15.9698 8.69072 14.6362C6.7774 13.4204 5.15525 11.7982 3.93945 9.88492C2.60116 7.81908 1.76831 5.46703 1.50838 3.01934C1.48859 2.80036 1.51462 2.57966 1.5848 2.37129C1.65498 2.16291 1.76778 1.97144 1.91601 1.80905C2.06425 1.64666 2.24467 1.51692 2.4458 1.42808C2.64692 1.33924 2.86435 1.29325 3.08422 1.29305H5.45985C5.84416 1.28926 6.21672 1.42535 6.50811 1.67594C6.7995 1.92654 6.98982 2.27454 7.04361 2.65508C7.14388 3.41533 7.32983 4.1618 7.59792 4.88025C7.70447 5.16369 7.72752 5.47172 7.66437 5.76785C7.60121 6.06399 7.45449 6.33581 7.24158 6.55112L6.23589 7.5568C7.36318 9.5393 9.00466 11.1808 10.9872 12.3081L11.9928 11.3024C12.2082 11.0895 12.48 10.9428 12.7761 10.8796C13.0722 10.8164 13.3803 10.8395 13.6637 10.946C14.3822 11.2141 15.1286 11.4001 15.8889 11.5004C16.2736 11.5546 16.6249 11.7484 16.876 12.0448C17.1271 12.3412 17.2606 12.7195 17.2509 13.1079Z" stroke="black" stroke-width="1.58376" stroke-linecap="round" stroke-linejoin="round"/>
</svg>
