<svg width="21" height="22" viewBox="0 0 21 22" fill="none" xmlns="http://www.w3.org/2000/svg">
<path d="M7.63797 12.8268H4.39878C4.21571 12.8268 4.03731 12.8845 3.88878 12.9915C3.74025 13.0985 3.62911 13.2495 3.57108 13.4231L1.8214 18.6617C1.77753 18.7929 1.76549 18.9327 1.78626 19.0695C1.80703 19.2063 1.86002 19.3362 1.94085 19.4485C2.02169 19.5608 2.12807 19.6523 2.2512 19.7154C2.37434 19.7785 2.51072 19.8115 2.64909 19.8115H18.3648C18.5031 19.8114 18.6394 19.7785 18.7624 19.7154C18.8855 19.6524 18.9918 19.561 19.0726 19.4488C19.1534 19.3366 19.2064 19.2068 19.2273 19.0701C19.2481 18.9334 19.2362 18.7937 19.1925 18.6625L17.4463 13.424C17.3884 13.25 17.2772 13.0988 17.1285 12.9916C16.9798 12.8844 16.8011 12.8267 16.6178 12.8268H13.3768M15.7456 7.58819C15.7456 10.7427 12.3676 14.0744 11.037 15.2671C10.8848 15.3833 10.6985 15.4463 10.507 15.4463C10.3155 15.4463 10.1293 15.3833 9.97704 15.2671C8.64732 14.0744 5.26843 10.7427 5.26843 7.58819C5.26843 6.19883 5.82035 4.86638 6.80278 3.88395C7.7852 2.90153 9.11765 2.34961 10.507 2.34961C11.8964 2.34961 13.2288 2.90153 14.2112 3.88395C15.1937 4.86638 15.7456 6.19883 15.7456 7.58819ZM12.2532 7.58819C12.2532 8.55258 11.4714 9.33438 10.507 9.33438C9.54262 9.33438 8.76082 8.55258 8.76082 7.58819C8.76082 6.62379 9.54262 5.842 10.507 5.842C11.4714 5.842 12.2532 6.62379 12.2532 7.58819Z" stroke="black" stroke-width="1.74619" stroke-linecap="round" stroke-linejoin="round"/>
</svg>
