<svg width="49" height="49" viewBox="0 0 49 49" fill="none" xmlns="http://www.w3.org/2000/svg">
<path d="M0 10.2287C0 4.57953 4.57954 0 10.2287 0H48.5863V48.5863H10.2287C4.57953 48.5863 0 44.0067 0 38.3576V10.2287Z" fill="white"/>
<path d="M45.6712 24.7991C45.6712 23.2201 45.5295 21.7017 45.2663 20.2441H24.2932V28.8581H36.2778C35.7616 31.6417 34.1927 34.0001 31.8342 35.5792V41.1666H39.031C43.2419 37.2898 45.6712 31.5809 45.6712 24.7991Z" fill="#4285F4"/>
<path d="M24.2932 46.5621C30.3057 46.5621 35.3466 44.568 39.031 41.167L31.8342 35.5795C29.8401 36.9157 27.2893 37.7052 24.2932 37.7052C18.4932 37.7052 13.584 33.7879 11.8328 28.5244H4.39307V34.294C8.05728 41.5719 15.5882 46.5621 24.2932 46.5621Z" fill="#34A853"/>
<path d="M11.8328 28.5242C11.3874 27.1881 11.1343 25.7609 11.1343 24.2932C11.1343 22.8254 11.3874 21.3982 11.8328 20.0621V14.2925H4.393C2.83419 17.3956 2.02304 20.8205 2.02442 24.2932C2.02442 27.8865 2.8848 31.2876 4.393 34.2938L11.8328 28.5242Z" fill="#FBBC05"/>
<path d="M24.2932 10.8813C27.5626 10.8813 30.4981 12.0048 32.8059 14.2115L39.193 7.8244C35.3365 4.23104 30.2956 2.02441 24.2932 2.02441C15.5882 2.02441 8.05728 7.01463 4.39307 14.2924L11.8328 20.0621C13.584 14.7986 18.4932 10.8813 24.2932 10.8813Z" fill="#EA4335"/>
</svg>
