<svg width="610" height="156" viewBox="0 0 610 156" fill="none" xmlns="http://www.w3.org/2000/svg">
<mask id="path-1-outside-1_1_4" maskUnits="userSpaceOnUse" x="-0.0427982" y="-10.039" width="611.134" height="176.953" fill="black">
<rect fill="white" x="-0.0427982" y="-10.039" width="611.134" height="176.953"/>
<path d="M53.3617 56.9259C53.3561 51.6246 53.7435 43.451 57.7622 43.2215C66.3411 42.7315 75.2426 43.5011 83.8419 43.6706L124.618 44.4746C134.085 44.6612 140.871 40.1403 149.12 35.8494C162.271 29.0092 178.332 27.4094 192.969 25.9792C199.874 25.3046 206.95 26.9495 213.851 26.0657C223.655 24.8102 233.044 23.4956 242.938 22.4754C263.056 20.401 284.717 26.0432 304.179 18.1528C308.188 16.5274 311.745 14.5799 316.105 13.8338C321.934 12.8362 327.922 14.2111 333.683 13.2045C341.52 11.8351 350.602 10.5605 358.59 10.4427C379.119 10.1397 400.241 12.1236 420.279 6.45424C425.958 4.84749 434.831 3.95053 440.694 3.86403C447.616 3.76187 454.583 4.13787 461.504 4.27433C474.295 4.52651 497.746 2.83844 510.5 3.86406C529.499 -4.02066 537.499 18.1528 560.722 7.40159C567.416 7.53357 568.537 5.88113 570.404 11.3008C571.399 14.1888 572.93 17.446 575.054 19.655C580.268 25.0791 592.478 24.6759 599.131 29.303C601.512 30.9592 607.571 38.0517 607.681 41.1171C607.858 46.0595 606.223 46.0592 602.837 49.219C595.38 56.1763 587.25 58.2801 576.769 58.0735C569.5 57.9302 562.186 57.5168 554.917 57.6427C551.109 57.7086 548.568 62.073 546.07 64.2343C545.927 64.3578 545.717 64.439 545.501 64.4906C545.694 64.4899 545.924 64.4917 546.195 64.497L559.852 64.7663C567.311 64.9134 573.908 67.4512 578.671 73.7901C580.242 75.882 581.75 83.4396 580.772 85.9976C579.795 88.5534 573.779 87.291 571.639 87.2488C565.869 87.135 565.78 87.4555 565.661 93.5067C565.585 97.3285 569.11 100.081 564.297 99.9857L522.74 99.1663L484.696 98.4162C467.883 98.0847 444.564 93.6981 429.018 101.092C425.69 102.675 423.911 105.79 424.884 109.468C426.097 114.053 420.551 113.546 416.543 113.467C406.285 113.265 396.094 109.719 385.934 108.44C373.492 106.874 360.382 107.676 347.83 107.428L282.861 106.147C278.463 106.061 273.543 105.39 269.139 105.877C264.41 106.399 258.803 112.468 254.908 114.9C242.059 122.923 231.344 123.869 216.483 123.576C192.611 123.105 171.871 125.479 148.798 131.349C141.255 133.268 133.164 137.85 125.309 138.108C106.441 138.728 84.2216 133.761 67.3763 142.951C54.7698 149.829 39.6858 156.339 25.2986 152.075C20.8017 150.743 12.9763 149.841 8.99475 147.46C4.45304 144.745 18.3026 135.44 19.6313 134.547L19.6591 134.528C28.9144 128.308 5.74759 133.923 5.24383 129.82C4.79922 126.199 6.60896 120.996 4.83327 117.646C2.68134 113.586 0.964347 110.102 6.65529 107.728C16.0616 103.804 25.4553 103.43 35.5038 103.613C35.5 103.613 35.4962 103.613 35.4924 103.612C29.6634 103.326 22.1359 94.9634 18.9013 90.4687C17.4348 88.4308 13.8361 87.2342 15.9666 84.2302C18.3876 80.8166 22.9081 78.974 25.2508 75.305C26.6281 73.148 33.7515 70.7884 25.9284 70.6342C23.4658 70.5856 30.8729 69.8295 33.0581 68.6929C35.7666 67.2841 37.8872 67.3568 40.8903 67.416C48.7693 67.5713 52.5993 63.6045 53.3617 56.9259Z"/>
</mask>
<path d="M53.3617 56.9259C53.3561 51.6246 53.7435 43.451 57.7622 43.2215C66.3411 42.7315 75.2426 43.5011 83.8419 43.6706L124.618 44.4746C134.085 44.6612 140.871 40.1403 149.12 35.8494C162.271 29.0092 178.332 27.4094 192.969 25.9792C199.874 25.3046 206.95 26.9495 213.851 26.0657C223.655 24.8102 233.044 23.4956 242.938 22.4754C263.056 20.401 284.717 26.0432 304.179 18.1528C308.188 16.5274 311.745 14.5799 316.105 13.8338C321.934 12.8362 327.922 14.2111 333.683 13.2045C341.52 11.8351 350.602 10.5605 358.59 10.4427C379.119 10.1397 400.241 12.1236 420.279 6.45424C425.958 4.84749 434.831 3.95053 440.694 3.86403C447.616 3.76187 454.583 4.13787 461.504 4.27433C474.295 4.52651 497.746 2.83844 510.5 3.86406C529.499 -4.02066 537.499 18.1528 560.722 7.40159C567.416 7.53357 568.537 5.88113 570.404 11.3008C571.399 14.1888 572.93 17.446 575.054 19.655C580.268 25.0791 592.478 24.6759 599.131 29.303C601.512 30.9592 607.571 38.0517 607.681 41.1171C607.858 46.0595 606.223 46.0592 602.837 49.219C595.38 56.1763 587.25 58.2801 576.769 58.0735C569.5 57.9302 562.186 57.5168 554.917 57.6427C551.109 57.7086 548.568 62.073 546.07 64.2343C545.927 64.3578 545.717 64.439 545.501 64.4906C545.694 64.4899 545.924 64.4917 546.195 64.497L559.852 64.7663C567.311 64.9134 573.908 67.4512 578.671 73.7901C580.242 75.882 581.75 83.4396 580.772 85.9976C579.795 88.5534 573.779 87.291 571.639 87.2488C565.869 87.135 565.78 87.4555 565.661 93.5067C565.585 97.3285 569.11 100.081 564.297 99.9857L522.74 99.1663L484.696 98.4162C467.883 98.0847 444.564 93.6981 429.018 101.092C425.69 102.675 423.911 105.79 424.884 109.468C426.097 114.053 420.551 113.546 416.543 113.467C406.285 113.265 396.094 109.719 385.934 108.44C373.492 106.874 360.382 107.676 347.83 107.428L282.861 106.147C278.463 106.061 273.543 105.39 269.139 105.877C264.41 106.399 258.803 112.468 254.908 114.9C242.059 122.923 231.344 123.869 216.483 123.576C192.611 123.105 171.871 125.479 148.798 131.349C141.255 133.268 133.164 137.85 125.309 138.108C106.441 138.728 84.2216 133.761 67.3763 142.951C54.7698 149.829 39.6858 156.339 25.2986 152.075C20.8017 150.743 12.9763 149.841 8.99475 147.46C4.45304 144.745 18.3026 135.44 19.6313 134.547L19.6591 134.528C28.9144 128.308 5.74759 133.923 5.24383 129.82C4.79922 126.199 6.60896 120.996 4.83327 117.646C2.68134 113.586 0.964347 110.102 6.65529 107.728C16.0616 103.804 25.4553 103.43 35.5038 103.613C35.5 103.613 35.4962 103.613 35.4924 103.612C29.6634 103.326 22.1359 94.9634 18.9013 90.4687C17.4348 88.4308 13.8361 87.2342 15.9666 84.2302C18.3876 80.8166 22.9081 78.974 25.2508 75.305C26.6281 73.148 33.7515 70.7884 25.9284 70.6342C23.4658 70.5856 30.8729 69.8295 33.0581 68.6929C35.7666 67.2841 37.8872 67.3568 40.8903 67.416C48.7693 67.5713 52.5993 63.6045 53.3617 56.9259Z" fill="#E2FBF9"/>
<path d="M52.3218 50.6425L47.6118 60.6726L59.1585 60.5994L54.3218 50.6299L52.3218 50.6425ZM53.3617 56.9259L52.3681 56.8125L52.3616 56.8695L52.3617 56.9269L53.3617 56.9259ZM545.501 64.4906L545.733 65.4633L545.497 63.4906L545.501 64.4906ZM35.5038 103.613L35.522 102.613L35.4548 104.612L35.5038 103.613ZM48.1683 54.6779C48.1102 57.6228 50.4505 60.0572 53.3954 60.1153C56.3404 60.1733 58.7748 57.8331 58.8329 54.8881C58.8909 51.9432 56.5506 49.5088 53.6057 49.4507C50.6607 49.3926 48.2263 51.7329 48.1683 54.6779ZM545.269 63.5179C545.154 63.5454 545.025 63.5614 544.913 63.5676C544.766 63.5759 544.757 63.5621 544.844 63.5804C544.864 63.5846 544.911 63.5951 544.97 63.6169C544.999 63.6277 545.171 63.6886 545.331 63.8528C545.423 63.947 545.553 64.1197 545.598 64.3743C545.646 64.6467 545.574 64.8867 545.473 65.0568C545.312 65.3271 545.075 65.4312 545.049 65.4435C544.979 65.4769 544.921 65.4931 544.9 65.4989C544.874 65.5062 544.854 65.51 544.846 65.5115C544.831 65.5144 544.829 65.5141 544.846 65.5122C544.925 65.5038 545.124 65.492 545.505 65.4906L545.497 63.4906C545.099 63.4921 544.816 63.5039 544.632 63.5237C544.585 63.5288 544.531 63.5358 544.476 63.5461C544.446 63.5517 544.324 63.5737 544.193 63.6361C544.159 63.652 543.917 63.7597 543.754 64.0334C543.652 64.2053 543.58 64.447 543.628 64.7211C543.673 64.9774 543.805 65.1517 543.898 65.2476C544.061 65.4151 544.239 65.4791 544.276 65.4928C544.343 65.5177 544.401 65.531 544.433 65.5379C544.623 65.5776 544.859 65.5738 545.025 65.5645C545.226 65.5532 545.477 65.5243 545.733 65.4633L545.269 63.5179ZM35.4856 104.613C35.6329 104.615 35.7803 104.618 35.9279 104.621L35.9674 102.622C35.8188 102.619 35.6703 102.616 35.522 102.613L35.4856 104.613ZM35.9279 104.621C37.481 104.652 38.4511 104.678 38.9766 104.696C39.1078 104.701 39.2091 104.705 39.2838 104.708C39.3211 104.71 39.3503 104.712 39.3723 104.713C39.3833 104.714 39.3917 104.714 39.398 104.715C39.4045 104.715 39.4072 104.715 39.4069 104.715C39.4067 104.715 39.4049 104.715 39.402 104.715C39.3992 104.715 39.3936 104.714 39.3862 104.713C39.3793 104.712 39.3663 104.71 39.3494 104.707C39.3363 104.705 39.301 104.699 39.2564 104.686C39.2342 104.68 39.1938 104.668 39.1451 104.648C39.109 104.633 39.0018 104.587 38.8882 104.493C38.7916 104.412 38.4904 104.124 38.532 103.639C38.571 103.186 38.8818 102.956 38.9605 102.902C39.0688 102.827 39.1662 102.792 39.2015 102.78C39.2475 102.764 39.2853 102.755 39.3067 102.75C39.3495 102.74 39.383 102.736 39.396 102.734C39.4523 102.727 39.4833 102.729 39.4076 102.73C39.0023 102.734 37.3596 102.703 35.5528 102.614L35.4548 104.612C37.278 104.701 38.9662 104.735 39.4298 104.73C39.4627 104.729 39.5639 104.729 39.6476 104.718C39.664 104.716 39.7004 104.711 39.7452 104.701C39.7676 104.696 39.8063 104.687 39.8531 104.671C39.889 104.658 39.987 104.623 40.0956 104.548C40.1747 104.494 40.4857 104.264 40.5247 103.81C40.5664 103.325 40.265 103.036 40.1681 102.956C40.0542 102.861 39.9464 102.815 39.9097 102.8C39.8603 102.779 39.8191 102.767 39.7959 102.76C39.7188 102.739 39.6531 102.731 39.6454 102.73C39.6222 102.727 39.6013 102.725 39.5868 102.724C39.4918 102.715 39.3061 102.707 39.0473 102.697C38.5059 102.678 37.5233 102.652 35.9674 102.622L35.9279 104.621ZM54.3552 57.0393C54.4374 56.3193 54.4852 55.5731 54.5004 54.8027L52.5008 54.7633C52.4867 55.4767 52.4426 56.1601 52.3681 56.8125L54.3552 57.0393ZM53.3617 56.9259L55.3488 57.1527L55.3618 57.0386L55.3617 56.9238L53.3617 56.9259ZM57.7622 43.2215L57.8762 45.2182L57.7622 43.2215ZM149.12 35.8494L150.043 37.6237L149.12 35.8494ZM192.969 25.9792L193.163 27.9698L192.969 25.9792ZM213.851 26.0657L213.597 24.0819L213.851 26.0657ZM242.938 22.4754L242.733 20.4859L242.938 22.4754ZM304.179 18.1528L304.93 20.0063L304.179 18.1528ZM316.105 13.8338L315.767 11.8625L316.105 13.8338ZM333.683 13.2045L334.027 15.1747L333.683 13.2045ZM358.59 10.4427L358.56 8.44288L358.59 10.4427ZM420.279 6.45424L419.735 4.52978L419.735 4.52978L420.279 6.45424ZM440.694 3.86403L440.664 1.86424L440.694 3.86403ZM510.5 3.86406L510.34 5.85762L510.821 5.89631L511.266 5.71131L510.5 3.86406ZM560.722 7.40159L560.762 5.40198L560.301 5.39289L559.882 5.58666L560.722 7.40159ZM570.404 11.3008L572.295 10.6495L572.295 10.6495L570.404 11.3008ZM575.054 19.655L573.612 21.041L573.612 21.041L575.054 19.655ZM599.131 29.303L600.273 27.6611L600.273 27.6611L599.131 29.303ZM607.681 41.1171L609.679 41.0455L609.679 41.0455L607.681 41.1171ZM602.837 49.219L604.201 50.6813L602.837 49.219ZM554.917 57.6427L554.883 55.643L554.917 57.6427ZM546.07 64.2343L547.378 65.747L547.378 65.747L546.07 64.2343ZM545.501 64.4906L545.036 62.5452L545.508 66.4906L545.501 64.4906ZM578.671 73.7901L580.27 72.5888L578.671 73.7901ZM580.772 85.9976L582.64 86.712L582.64 86.712L580.772 85.9976ZM429.018 101.092L428.159 99.2857L429.018 101.092ZM424.884 109.468L426.818 108.957L424.884 109.468ZM385.934 108.44L385.684 110.424L385.934 108.44ZM269.139 105.877L269.359 107.865L269.139 105.877ZM254.908 114.9L255.968 116.596L255.968 116.596L254.908 114.9ZM148.798 131.349L148.305 129.411L148.305 129.411L148.798 131.349ZM125.309 138.108L125.375 140.107L125.309 138.108ZM67.3763 142.951L68.3342 144.707L67.3763 142.951ZM25.2986 152.075L25.8668 150.158L25.2986 152.075ZM8.99475 147.46L7.96843 149.177L7.96844 149.177L8.99475 147.46ZM19.6313 134.547L20.7467 136.207L20.7471 136.207L19.6313 134.547ZM19.6591 134.528L18.5434 132.869L18.5433 132.869L19.6591 134.528ZM5.24383 129.82L3.25874 130.064L3.25874 130.064L5.24383 129.82ZM4.83327 117.646L3.06615 118.583L3.06615 118.583L4.83327 117.646ZM6.65529 107.728L5.88532 105.882L5.88532 105.882L6.65529 107.728ZM35.5038 103.613L35.4674 105.613L35.6035 101.615L35.5038 103.613ZM35.4924 103.612L35.5921 101.615L35.5906 101.615L35.4924 103.612ZM18.9013 90.4687L20.5247 89.3005L20.5247 89.3005L18.9013 90.4687ZM15.9666 84.2302L14.3352 83.0732L15.9666 84.2302ZM25.2508 75.305L26.9364 76.3814L25.2508 75.305ZM33.0581 68.6929L33.981 70.4672L33.981 70.4672L33.0581 68.6929ZM55.3617 56.9238C55.3589 54.2817 55.4586 51.1036 56.0066 48.5993C56.2825 47.3386 56.6382 46.4163 57.0305 45.8413C57.3884 45.3168 57.6584 45.2307 57.8762 45.2182L57.6481 41.2247C55.8566 41.3271 54.5711 42.3488 53.7263 43.5869C52.9159 44.7747 52.4216 46.2702 52.0991 47.7442C51.4501 50.7095 51.3589 54.2688 51.3617 56.928L55.3617 56.9238ZM57.8762 45.2182C66.3608 44.7336 75.0123 45.4969 83.8025 45.6702L83.8813 41.671C75.4729 41.5052 66.3213 40.7293 57.6481 41.2247L57.8762 45.2182ZM83.8025 45.6702L124.578 46.4742L124.657 42.475L83.8813 41.671L83.8025 45.6702ZM124.578 46.4742C134.688 46.6735 142.039 41.787 150.043 37.6237L148.197 34.0751C139.702 38.4936 133.482 42.6489 124.657 42.475L124.578 46.4742ZM150.043 37.6237C162.789 30.9939 178.443 29.408 193.163 27.9698L192.775 23.9887C178.22 25.4108 161.752 27.0246 148.197 34.0751L150.043 37.6237ZM193.163 27.9698C196.425 27.6511 199.75 27.878 203.288 28.0971C206.764 28.3123 210.44 28.5189 214.105 28.0495L213.597 24.0819C210.361 24.4963 207.048 24.3223 203.535 24.1047C200.084 23.891 196.417 23.6328 192.775 23.9887L193.163 27.9698ZM214.105 28.0495C223.938 26.7902 233.282 25.4817 243.143 24.4648L242.733 20.4859C232.806 21.5095 223.371 22.8302 213.597 24.0819L214.105 28.0495ZM243.143 24.4648C253.046 23.4438 263.218 24.3268 273.773 24.4948C284.2 24.6608 294.814 24.1078 304.93 20.0063L303.427 16.2994C294.082 20.0882 284.134 20.6593 273.836 20.4954C263.666 20.3335 252.949 19.4326 242.733 20.4859L243.143 24.4648ZM304.93 20.0063C309.204 18.2735 312.366 16.5026 316.442 15.8052L315.767 11.8625C311.123 12.6573 307.172 14.7812 303.427 16.2994L304.93 20.0063ZM316.442 15.8052C319.124 15.3461 321.875 15.4273 324.856 15.5216C327.766 15.6136 330.91 15.7193 334.027 15.1747L333.339 11.2344C330.694 11.6964 327.964 11.6179 324.983 11.5236C322.072 11.4315 318.914 11.324 315.767 11.8625L316.442 15.8052ZM334.027 15.1747C341.834 13.8105 350.792 12.558 358.619 12.4424L358.56 8.44288C350.411 8.56313 341.206 9.85974 333.339 11.2344L334.027 15.1747ZM358.619 12.4424C378.848 12.1439 400.45 14.1431 420.824 8.37869L419.735 4.52978C400.033 10.1041 379.39 8.13551 358.56 8.44288L358.619 12.4424ZM420.824 8.37869C426.273 6.83696 434.956 5.94891 440.723 5.86381L440.664 1.86424C434.707 1.95215 425.643 2.85802 419.735 4.52978L420.824 8.37869ZM440.723 5.86381C447.606 5.76225 454.446 6.13556 461.465 6.27395L461.544 2.27472C454.72 2.14018 447.627 1.7615 440.664 1.86424L440.723 5.86381ZM461.465 6.27395C467.924 6.4013 477.065 6.03926 486.074 5.77832C495.151 5.51541 504.091 5.35511 510.34 5.85762L510.66 1.8705C504.155 1.34738 494.993 1.51832 485.958 1.78C476.855 2.04364 467.875 2.39955 461.544 2.27472L461.465 6.27395ZM511.266 5.71131C519.857 2.14634 525.801 5.26113 533.219 8.53732C536.88 10.154 540.897 11.7871 545.545 12.2652C550.241 12.7483 555.455 12.0443 561.563 9.21653L559.882 5.58666C554.379 8.13452 549.884 8.6905 545.954 8.28624C541.977 7.87706 538.452 6.47538 534.835 4.87822C527.699 1.72665 520.142 -2.30294 509.733 2.01681L511.266 5.71131ZM560.683 9.4012C562.437 9.43579 563.834 9.35292 564.893 9.30208C566.027 9.24759 566.586 9.24739 566.966 9.32642C567.185 9.37195 567.29 9.42345 567.464 9.64891C567.725 9.98497 568.06 10.6348 568.513 11.9522L572.295 10.6495C571.816 9.25704 571.31 8.08101 570.626 7.19849C569.856 6.20536 568.912 5.64554 567.781 5.41021C566.81 5.20839 565.718 5.25782 564.701 5.30668C563.608 5.35919 562.354 5.43338 560.762 5.40198L560.683 9.4012ZM568.513 11.9522C569.543 14.9404 571.19 18.5214 573.612 21.041L576.496 18.2689C574.671 16.3707 573.255 13.4372 572.295 10.6495L568.513 11.9522ZM573.612 21.041C575.188 22.6802 577.215 23.8035 579.334 24.6556C581.452 25.5077 583.791 26.1381 586.059 26.7159C590.766 27.9151 595.034 28.89 597.989 30.9449L600.273 27.6611C596.574 25.0889 591.411 23.9518 587.047 22.8398C584.779 22.262 582.672 21.687 580.827 20.9446C578.981 20.2022 577.527 19.3418 576.496 18.2689L573.612 21.041ZM597.989 30.9449C598.923 31.5949 600.883 33.586 602.675 35.9044C603.549 37.0363 604.328 38.1747 604.883 39.179C605.48 40.2579 605.672 40.9236 605.682 41.1886L609.679 41.0455C609.634 39.7778 609.028 38.4075 608.383 37.2426C607.698 36.0032 606.792 34.6902 605.84 33.4587C603.979 31.0505 601.719 28.6672 600.273 27.6611L597.989 30.9449ZM605.682 41.1886C605.762 43.435 605.416 44.1078 605.033 44.5875C604.769 44.9169 604.4 45.2518 603.768 45.7778C603.166 46.2781 602.372 46.9175 601.472 47.7566L604.201 50.6813C604.995 49.9406 605.674 49.3951 606.326 48.8523C606.948 48.3352 607.611 47.7689 608.157 47.0856C609.393 45.5398 609.776 43.7416 609.679 41.0455L605.682 41.1886ZM601.472 47.7566C594.504 54.2579 586.94 56.2736 576.808 56.0739L576.729 60.0731C587.56 60.2866 596.255 58.0948 604.201 50.6813L601.472 47.7566ZM576.808 56.0739C569.644 55.9326 562.195 55.5164 554.883 55.643L554.952 59.6424C562.178 59.5173 569.355 59.9277 576.729 60.0731L576.808 56.0739ZM554.883 55.643C552.191 55.6895 550.129 57.2557 548.616 58.7114C547.844 59.4538 547.12 60.2637 546.491 60.9567C545.833 61.6807 545.282 62.2715 544.761 62.7217L547.378 65.747C548.107 65.1165 548.811 64.3513 549.451 63.647C550.119 62.9117 550.737 62.2211 551.389 61.594C552.723 60.3107 553.835 59.6617 554.952 59.6424L554.883 55.643ZM544.761 62.7216C544.885 62.6142 544.987 62.5675 545.017 62.5544C545.052 62.5393 545.061 62.5393 545.036 62.5452L545.965 66.4359C546.298 66.3565 546.876 66.181 547.378 65.747L544.761 62.7216ZM545.508 66.4906C545.683 66.4899 545.897 66.4915 546.155 66.4966L546.234 62.4974C545.95 62.4918 545.705 62.4898 545.493 62.4906L545.508 66.4906ZM546.155 66.4966L559.812 66.7659L559.891 62.7667L546.234 62.4974L546.155 66.4966ZM559.812 66.7659C566.8 66.9037 572.757 69.2485 577.072 74.9915L580.27 72.5888C575.06 65.6538 567.822 62.923 559.891 62.7667L559.812 66.7659ZM577.072 74.9915C577.265 75.2488 577.573 75.8625 577.902 76.852C578.215 77.7926 578.499 78.9208 578.71 80.0784C578.922 81.2377 579.053 82.3821 579.078 83.3567C579.105 84.3906 579.005 85.0205 578.904 85.2832L582.64 86.712C583.029 85.6957 583.107 84.4216 583.077 83.2537C583.045 82.0264 582.885 80.6711 582.645 79.3598C582.405 78.0467 582.078 76.7334 581.697 75.5886C581.333 74.4928 580.862 73.3774 580.27 72.5888L577.072 74.9915ZM578.904 85.2832C578.957 85.1443 579.035 85.2378 578.612 85.3764C578.175 85.5192 577.513 85.5981 576.643 85.5974C575.797 85.5968 574.894 85.5232 574.022 85.4396C573.215 85.3623 572.314 85.2617 571.679 85.2492L571.6 89.2484C572.035 89.257 572.687 89.33 573.641 89.4214C574.529 89.5065 575.592 89.5967 576.64 89.5974C577.664 89.5982 578.822 89.5161 579.855 89.1781C580.902 88.8358 582.098 88.1287 582.64 86.712L578.904 85.2832ZM571.679 85.2492C570.264 85.2213 569.023 85.213 568.026 85.3449C567.012 85.4789 565.903 85.7968 565.061 86.7099C564.253 87.5861 563.981 88.703 563.851 89.7C563.718 90.713 563.69 91.9921 563.661 93.4672L567.66 93.5461C567.691 91.9956 567.719 90.9655 567.817 90.2201C567.917 89.4587 568.051 89.3679 568.001 89.4219C567.917 89.5127 567.92 89.3936 568.55 89.3104C569.195 89.225 570.13 89.2194 571.6 89.2484L571.679 85.2492ZM563.661 93.4672C563.636 94.7289 563.909 95.8505 564.181 96.7337C564.315 97.1686 564.463 97.5868 564.573 97.9077C564.692 98.2566 564.766 98.4902 564.808 98.6709C564.919 99.1455 564.651 98.5381 565.212 98.0461C565.397 97.8844 565.513 97.8955 565.338 97.9309C565.172 97.9645 564.861 97.9964 564.336 97.9861L564.257 101.985C564.936 101.999 565.568 101.965 566.13 101.852C566.684 101.74 567.315 101.522 567.848 101.055C569.105 99.9547 568.862 98.4383 568.703 97.759C568.61 97.3627 568.475 96.9582 568.358 96.6147C568.231 96.2431 568.115 95.9147 568.004 95.5557C567.787 94.8509 567.647 94.1953 567.66 93.5461L563.661 93.4672ZM564.336 97.9861L522.78 97.1667L522.701 101.166L564.257 101.985L564.336 97.9861ZM522.78 97.1667L484.735 96.4166L484.656 100.416L522.701 101.166L522.78 97.1667ZM484.735 96.4166C480.594 96.335 476.041 96.0033 471.232 95.6598C466.444 95.3178 461.419 94.9657 456.425 94.8575C446.485 94.6423 436.374 95.3787 428.159 99.2857L429.877 102.898C437.208 99.4112 446.529 98.6441 456.338 98.8566C461.219 98.9623 466.148 99.3069 470.947 99.6496C475.724 99.9908 480.391 100.332 484.656 100.416L484.735 96.4166ZM428.159 99.2857C426.163 100.235 424.529 101.695 423.56 103.579C422.581 105.482 422.345 107.691 422.951 109.979L426.818 108.957C426.45 107.567 426.617 106.38 427.117 105.409C427.625 104.421 428.545 103.531 429.877 102.898L428.159 99.2857ZM422.951 109.979C423.057 110.381 423.062 110.627 423.049 110.756C423.037 110.87 423.012 110.9 423.011 110.901C422.997 110.921 422.844 111.111 422.184 111.277C421.546 111.438 420.701 111.508 419.683 111.521C418.66 111.533 417.648 111.489 416.582 111.468L416.503 115.467C417.442 115.485 418.626 115.534 419.732 115.52C420.844 115.507 422.062 115.432 423.159 115.156C424.235 114.886 425.491 114.348 426.301 113.176C427.155 111.94 427.213 110.45 426.818 108.957L422.951 109.979ZM416.582 111.468C411.654 111.371 406.698 110.469 401.613 109.4C396.584 108.343 391.37 107.108 386.184 106.456L385.684 110.424C390.657 111.05 395.62 112.228 400.79 113.315C405.906 114.39 411.174 115.362 416.503 115.467L416.582 111.468ZM386.184 106.456C373.608 104.873 360.191 105.672 347.869 105.429L347.79 109.428C360.573 109.68 373.376 108.875 385.684 110.424L386.184 106.456ZM347.869 105.429L282.9 104.148L282.822 108.147L347.79 109.428L347.869 105.429ZM282.9 104.148C280.736 104.105 278.524 103.922 276.103 103.8C273.747 103.681 271.286 103.628 268.919 103.889L269.359 107.865C271.396 107.64 273.597 107.678 275.902 107.795C278.141 107.908 280.587 108.103 282.822 108.147L282.9 104.148ZM268.919 103.889C265.94 104.218 262.954 106.213 260.5 108.08C259.234 109.044 257.975 110.083 256.86 110.976C255.711 111.896 254.712 112.664 253.849 113.203L255.968 116.596C257.052 115.919 258.214 115.017 259.361 114.098C260.54 113.153 261.709 112.187 262.922 111.264C265.427 109.358 267.609 108.058 269.359 107.865L268.919 103.889ZM253.849 113.203C241.484 120.924 231.233 121.866 216.522 121.576L216.443 125.575C231.455 125.871 242.633 124.923 255.968 116.596L253.849 113.203ZM216.522 121.576C192.472 121.102 171.553 123.497 148.305 129.411L149.292 133.288C172.189 127.462 192.749 125.108 216.443 125.575L216.522 121.576ZM148.305 129.411C144.41 130.402 140.308 132.1 136.495 133.469C132.574 134.877 128.838 135.991 125.243 136.109L125.375 140.107C129.635 139.967 133.872 138.661 137.847 137.234C141.928 135.768 145.643 134.216 149.292 133.288L148.305 129.411ZM125.243 136.109C120.615 136.261 115.761 136.071 110.76 135.836C105.784 135.602 100.654 135.324 95.5872 135.316C85.4673 135.3 75.2895 136.356 66.4185 141.195L68.3342 144.707C76.3084 140.356 85.6629 139.3 95.581 139.316C100.533 139.323 105.549 139.596 110.572 139.832C115.57 140.067 120.569 140.265 125.375 140.107L125.243 136.109ZM66.4185 141.195C53.7925 148.084 39.3859 154.164 25.8668 150.158L24.7303 153.993C39.9857 158.514 55.747 151.574 68.3342 144.707L66.4185 141.195ZM25.8668 150.158C23.5429 149.469 20.2672 148.867 17.3993 148.211C14.3642 147.517 11.706 146.751 10.0211 145.743L7.96844 149.177C10.265 150.55 13.5103 151.425 16.5076 152.11C19.672 152.834 22.5574 153.349 24.7303 153.993L25.8668 150.158ZM10.0211 145.743C9.91808 145.682 10.0626 145.762 10.0827 145.957C10.0885 146.012 10.0606 145.844 10.3161 145.368C10.8248 144.42 11.9511 143.166 13.4556 141.801C16.3974 139.132 20.0824 136.654 20.7467 136.207L18.516 132.887C17.8516 133.333 13.9474 135.954 10.7677 138.839C9.21139 140.251 7.64386 141.888 6.79152 143.477C6.36662 144.269 5.99142 145.28 6.10393 146.368C6.23081 147.595 6.93599 148.559 7.96843 149.177L10.0211 145.743ZM20.7471 136.207L20.7749 136.188L18.5433 132.869L18.5156 132.887L20.7471 136.207ZM20.7748 136.188C21.3977 135.77 21.929 135.371 22.3582 134.989C22.769 134.623 23.1812 134.189 23.4636 133.684C23.7541 133.164 24.0248 132.335 23.6781 131.424C23.3532 130.57 22.6676 130.139 22.2324 129.935C21.3994 129.544 20.3062 129.436 19.4005 129.389C18.4044 129.338 17.2406 129.352 16.0629 129.381C13.6302 129.439 11.1251 129.556 9.1507 129.417C8.15416 129.347 7.4799 129.22 7.0956 129.075C6.65727 128.909 7.15326 128.96 7.22892 129.577L3.25874 130.064C3.46034 131.706 4.79049 132.479 5.67937 132.816C6.62227 133.173 7.76825 133.329 8.86982 133.407C11.0917 133.563 13.8943 133.434 16.1593 133.379C17.3305 133.351 18.3631 133.341 19.1957 133.384C19.6104 133.405 19.9411 133.438 20.1929 133.48C20.4634 133.524 20.551 133.565 20.5319 133.556C20.5154 133.548 20.4264 133.505 20.3137 133.403C20.1942 133.295 20.0408 133.113 19.9395 132.847C19.7136 132.253 19.9324 131.803 19.9716 131.733C20.0028 131.677 19.9642 131.765 19.6977 132.002C19.4498 132.223 19.0775 132.51 18.5434 132.869L20.7748 136.188ZM7.22892 129.577C7.14224 128.871 7.15961 128.024 7.23612 127.013C7.27388 126.513 7.32383 125.999 7.37716 125.456C7.42978 124.921 7.48583 124.356 7.53126 123.792C7.70516 121.632 7.78888 118.952 6.60039 116.71L3.06615 118.583C3.65335 119.691 3.72006 121.287 3.54416 123.471C3.50214 123.993 3.44994 124.519 3.39633 125.065C3.34342 125.603 3.28915 126.161 3.24752 126.711C3.16524 127.798 3.12312 128.96 3.25874 130.064L7.22892 129.577ZM6.60039 116.71C6.05636 115.683 5.59541 114.795 5.26624 113.973C4.93542 113.148 4.7995 112.536 4.80314 112.07C4.8063 111.668 4.911 111.338 5.20102 110.992C5.5294 110.599 6.1751 110.095 7.42526 109.574L5.88532 105.882C4.29001 106.548 3.01623 107.37 2.13322 108.425C1.21185 109.526 0.813237 110.767 0.803265 112.039C0.793783 113.249 1.13491 114.418 1.55342 115.462C1.97357 116.51 2.53422 117.579 3.06615 118.583L6.60039 116.71ZM7.42526 109.574C16.4271 105.819 25.4671 105.431 35.4674 105.613L35.5402 101.613C25.4435 101.43 15.6961 101.79 5.88532 105.882L7.42526 109.574ZM35.6035 101.615C35.6004 101.615 35.5974 101.615 35.5957 101.615C35.5936 101.615 35.5928 101.615 35.5921 101.615L35.3928 105.61C35.4973 105.615 35.3052 105.606 35.4041 105.61L35.6035 101.615ZM35.5906 101.615C34.5653 101.564 33.3146 101.143 31.8831 100.331C30.4686 99.5277 28.9961 98.4108 27.555 97.1258C24.6699 94.5533 22.0746 91.4542 20.5247 89.3005L17.278 91.6369C18.9626 93.9778 21.7483 97.3074 24.8929 100.111C26.4667 101.515 28.1711 102.823 29.9086 103.809C31.6289 104.786 33.5051 105.517 35.3942 105.61L35.5906 101.615ZM20.5247 89.3005C20.0082 88.5827 19.3451 87.9913 18.8401 87.5503C18.2686 87.0511 17.8844 86.7295 17.5874 86.3916C17.4537 86.2394 17.3812 86.1301 17.343 86.0573C17.325 86.0229 17.3165 86.0002 17.3127 85.9882C17.3107 85.9822 17.3098 85.9783 17.3093 85.9762C17.3089 85.9741 17.3088 85.973 17.3087 85.9726C17.3087 85.9723 17.3086 85.9715 17.3086 85.97C17.3086 85.9684 17.3087 85.965 17.3093 85.9592C17.3104 85.9484 17.3142 85.923 17.3276 85.8808C17.355 85.7942 17.4246 85.6316 17.5979 85.3872L14.3352 83.0732C13.6111 84.0942 13.2042 85.2113 13.3315 86.3988C13.4546 87.5478 14.0444 88.4194 14.5827 89.0319C15.1024 89.6234 15.7597 90.1708 16.2089 90.563C16.7246 91.0134 17.0612 91.3357 17.278 91.6369L20.5247 89.3005ZM17.5979 85.3872C18.6033 83.9697 20.0708 82.8423 21.8681 81.4404C23.5656 80.1163 25.5543 78.546 26.9364 76.3814L23.5651 74.2287C22.6046 75.733 21.1616 76.9185 19.408 78.2864C17.7541 79.5764 15.7509 81.0772 14.3352 83.0732L17.5979 85.3872ZM26.9364 76.3814C27.0388 76.2211 27.4097 75.8779 28.1987 75.3155C28.8043 74.8839 29.7779 74.2456 30.3787 73.7043C30.6467 73.4627 31.1815 72.9554 31.4174 72.2284C31.5588 71.7927 31.6101 71.2229 31.3803 70.6293C31.1595 70.0591 30.7653 69.6901 30.4337 69.4668C29.8396 69.0668 29.1054 68.9047 28.5014 68.8132C27.828 68.7112 26.9866 68.6546 25.9678 68.6346L25.889 72.6338C26.826 72.6523 27.4733 72.7031 27.9023 72.7681C28.4007 72.8436 28.3827 72.9081 28.1995 72.7847C28.0733 72.6997 27.808 72.4815 27.6501 72.0734C27.4831 71.6421 27.5309 71.2458 27.6127 70.9938C27.684 70.774 27.7803 70.6575 27.7828 70.6543C27.7931 70.6415 27.7742 70.6668 27.7008 70.7329C27.5493 70.8694 27.3148 71.0483 26.9758 71.2888C26.812 71.405 26.6397 71.5246 26.4526 71.6546C26.2689 71.7823 26.0727 71.9188 25.877 72.0583C25.4902 72.334 25.0673 72.6481 24.6823 72.9835C24.3106 73.3074 23.8861 73.7259 23.5651 74.2287L26.9364 76.3814ZM25.9678 68.6346C25.8318 68.6319 25.7835 68.6274 25.7883 68.6279C25.7929 68.6284 25.8082 68.63 25.8314 68.6336C25.8531 68.637 25.8948 68.644 25.9494 68.6571C25.9985 68.6689 26.0962 68.6944 26.2166 68.744C26.3141 68.7842 26.566 68.8953 26.8186 69.1363C27.1034 69.4079 27.4755 69.9434 27.4293 70.6953C27.3882 71.3638 27.0352 71.7878 26.8766 71.9516C26.7025 72.1316 26.5355 72.2342 26.4634 72.2762C26.3778 72.3261 26.3076 72.3577 26.2703 72.3736C26.156 72.4224 26.093 72.4325 26.1809 72.4106C26.4844 72.3348 27.1445 72.2181 28.1152 72.038C29.0269 71.8688 30.1251 71.6582 31.1432 71.4135C32.1094 71.1813 33.1963 70.8754 33.981 70.4672L32.1352 66.9185C31.8273 67.0787 31.1689 67.2934 30.2086 67.5242C29.3003 67.7425 28.2909 67.9371 27.3854 68.1051C26.539 68.2622 25.6726 68.4147 25.2116 68.5298C25.1083 68.5556 24.9018 68.6085 24.699 68.6951C24.6552 68.7139 24.3109 68.8509 24.0021 69.17C23.8356 69.3421 23.4784 69.7739 23.4368 70.45C23.3902 71.2093 23.7656 71.752 24.0576 72.0306C24.3174 72.2785 24.5804 72.3961 24.6931 72.4425C24.8285 72.4983 24.9454 72.5298 25.0178 72.5471C25.1621 72.5817 25.2906 72.5976 25.369 72.6058C25.5348 72.6233 25.7171 72.6304 25.889 72.6338L25.9678 68.6346ZM33.981 70.4672C36.183 69.3218 37.8169 69.3558 40.8509 69.4156L40.9297 65.4164C37.9576 65.3578 35.3501 65.2463 32.1352 66.9185L33.981 70.4672ZM40.8509 69.4156C45.1251 69.4999 48.5989 68.4674 51.1217 66.23C53.6399 63.9968 54.9312 60.8107 55.3488 57.1527L51.3746 56.6991C51.0298 59.7197 50.0249 61.8563 48.4677 63.2374C46.9152 64.6142 44.5345 65.4875 40.9297 65.4164L40.8509 69.4156Z" fill="#E2FBF9" mask="url(#path-1-outside-1_1_4)"/>
<path d="M130.087 98.4805C130.115 98.7517 130.036 98.9909 129.852 99.1983C129.666 99.3888 129.362 99.5059 128.938 99.5496L120.194 100.452C119.77 100.495 119.439 100.444 119.201 100.297C118.979 100.132 118.854 99.9134 118.826 99.6423C118.777 99.1678 119.053 98.7796 119.656 98.4776L120.888 97.9652C121.622 97.6154 122.139 97.2281 122.438 96.8034C122.735 96.3617 122.84 95.7257 122.755 94.8953L120.389 71.9667C120.34 71.4922 120.242 71.117 120.093 70.8412C119.962 70.5636 119.657 70.1839 119.179 69.7023L116.686 66.9537C116.435 66.6714 116.249 66.4508 116.13 66.2918C116.009 66.1159 115.939 65.9347 115.92 65.7483C115.893 65.4941 115.967 65.2896 116.139 65.1348C116.327 64.9613 116.581 64.858 116.903 64.8247L123.131 64.1822C123.555 64.1385 123.91 64.1789 124.197 64.3035C124.484 64.428 124.802 64.6864 125.151 65.0786L147.344 90.2005L146.579 92.7457L143.956 67.3259C143.871 66.4955 143.647 65.9021 143.285 65.5455C142.938 65.1703 142.343 64.8891 141.502 64.7018L140.014 64.47C139.361 64.2805 139.01 63.957 138.963 63.4994C138.933 63.2113 139.011 62.9721 139.197 62.7816C139.4 62.5894 139.713 62.4715 140.137 62.4278L148.881 61.5256C149.305 61.4819 149.627 61.5343 149.848 61.6828C150.069 61.8313 150.194 62.0496 150.224 62.3377C150.273 62.8122 150.005 63.1995 149.419 63.4997L148.187 64.0121C147.451 64.345 146.934 64.7323 146.637 65.1739C146.339 65.5987 146.233 66.2347 146.32 67.082L148.754 90.6715C148.803 91.1461 148.887 91.5484 149.007 91.8786C149.144 92.207 149.329 92.5048 149.562 92.7719L151.422 94.8664C151.749 95.2095 151.956 95.4793 152.045 95.6756C152.134 95.872 152.188 96.0634 152.207 96.2498C152.235 96.5209 152.156 96.7517 151.97 96.9422C151.799 97.1139 151.536 97.2182 151.18 97.2549L144.317 97.9629C143.622 98.0346 143.246 97.7909 143.188 97.2316C143.164 96.9944 143.098 96.77 142.99 96.5584C142.883 96.3468 142.599 95.9994 142.138 95.516L120.552 71.0508L122.528 69.5367L125.121 94.6768C125.203 95.4733 125.426 96.0583 125.79 96.4318C126.153 96.7883 126.747 97.0696 127.573 97.2755L129.061 97.5073C129.696 97.6816 130.038 98.006 130.087 98.4805ZM167.461 71.0667C170.003 70.8044 172.287 71.1083 174.312 71.9784C176.352 72.8298 178.012 74.14 179.29 75.9092C180.567 77.6614 181.332 79.7661 181.586 82.2234C181.831 84.5959 181.49 86.7719 180.564 88.7514C179.638 90.7309 178.248 92.3643 176.394 93.6517C174.555 94.9204 172.348 95.6876 169.772 95.9534C167.247 96.2139 164.964 95.9184 162.924 95.0671C160.899 94.197 159.248 92.8859 157.971 91.1336C156.692 89.3645 155.927 87.2597 155.675 84.8195C155.429 82.43 155.76 80.2464 156.669 78.2686C157.595 76.2891 158.986 74.6642 160.842 73.3937C162.696 72.1063 164.902 71.3307 167.461 71.0667ZM171.481 93.5934C172.599 93.3068 173.46 92.687 174.064 91.7341C174.666 90.7643 174.986 89.4724 175.025 87.8584C175.064 86.2445 174.773 84.3307 174.15 82.117C173.562 79.8998 172.828 78.1002 171.949 76.7179C171.087 75.334 170.13 74.3622 169.079 73.8027C168.028 73.2432 166.928 73.117 165.778 73.424C164.643 73.7124 163.774 74.3415 163.172 75.3113C162.57 76.2812 162.258 77.5722 162.236 79.1844C162.212 80.7796 162.503 82.685 163.108 84.9004C163.712 87.0989 164.445 88.8986 165.309 90.2995C166.188 91.6817 167.153 92.6526 168.205 93.2121C169.254 93.7546 170.346 93.8817 171.481 93.5934ZM196.659 91.2527C197.829 91.132 198.705 90.7419 199.288 90.0824C199.87 89.4228 200.115 88.6355 200.02 87.7204C199.961 87.1442 199.771 86.6328 199.451 86.1863C199.146 85.7211 198.618 85.3303 197.866 85.0139C197.112 84.6807 196.04 84.4145 194.649 84.2154C192.134 83.9097 190.149 83.4294 188.694 82.7745C187.238 82.1027 186.184 81.2694 185.533 80.2747C184.9 79.2782 184.516 78.136 184.383 76.8481C184.146 74.5434 184.764 72.647 186.237 71.1591C187.726 69.6525 189.962 68.7453 192.944 68.4376C194.063 68.3222 194.979 68.3219 195.693 68.4366C196.424 68.5496 197.02 68.6851 197.482 68.843C197.942 68.9839 198.316 69.0395 198.604 69.0098C198.926 68.9766 199.204 68.8537 199.439 68.641C199.672 68.4115 199.898 68.1912 200.116 67.9803C200.349 67.7507 200.618 67.6202 200.923 67.5887C201.127 67.5678 201.321 67.6248 201.506 67.7598C201.69 67.8779 201.86 68.1173 202.017 68.4778L204.195 73.905C204.399 74.3807 204.483 74.783 204.448 75.112C204.429 75.4223 204.264 75.6533 203.955 75.8052C203.662 75.9553 203.391 75.9833 203.141 75.8891C202.909 75.7932 202.666 75.5956 202.412 75.2964C201.467 73.9381 200.509 72.8723 199.539 72.0989C198.569 71.3256 197.581 70.8023 196.577 70.5291C195.589 70.2542 194.57 70.171 193.519 70.2794C192.113 70.4245 191.077 70.8397 190.411 71.5249C189.76 72.1915 189.488 73.0331 189.593 74.0499C189.655 74.66 189.866 75.2035 190.223 75.6804C190.579 76.1404 191.194 76.5394 192.068 76.8774C192.957 77.1967 194.21 77.4699 195.826 77.6971C197.978 77.9717 199.711 78.4181 201.025 79.0361C202.356 79.6524 203.347 80.4579 203.998 81.4526C204.664 82.4286 205.067 83.603 205.209 84.9757C205.358 86.4161 205.115 87.7171 204.481 88.8786C203.865 90.0383 202.935 90.9906 201.693 91.7353C200.468 92.4782 199.008 92.9371 197.314 93.1119C196.246 93.2221 195.361 93.1935 194.659 93.0262C193.958 92.8758 193.376 92.7132 192.913 92.5384C192.465 92.3448 192.08 92.2646 191.758 92.2979C191.436 92.3311 191.151 92.4718 190.902 92.7201C190.654 92.9684 190.414 93.2158 190.182 93.4623C189.951 93.7089 189.7 93.8461 189.428 93.8741C189.208 93.8968 189.014 93.8398 188.846 93.703C188.677 93.5662 188.531 93.3073 188.406 92.9263L186.857 87.871C186.695 87.3053 186.635 86.8834 186.675 86.6052C186.714 86.3271 186.872 86.1138 187.148 85.9655C187.422 85.8002 187.677 85.7825 187.913 85.9122C188.166 86.0403 188.439 86.2776 188.732 86.6242C190.051 88.4577 191.381 89.7249 192.721 90.4259C194.059 91.1099 195.372 91.3855 196.659 91.2527ZM220.391 88.8043C221.561 88.6837 222.437 88.2936 223.019 87.634C223.602 86.9744 223.846 86.1871 223.752 85.272C223.692 84.6958 223.503 84.1845 223.183 83.7379C222.878 83.2727 222.349 82.8819 221.597 82.5656C220.844 82.2323 219.771 81.9661 218.381 81.7671C215.866 81.4613 213.881 80.981 212.426 80.3262C210.969 79.6544 209.916 78.8211 209.265 77.8263C208.631 76.8299 208.248 75.6877 208.115 74.3997C207.877 72.095 208.495 70.1987 209.969 68.7108C211.458 67.2041 213.693 66.297 216.676 65.9893C217.794 65.8739 218.711 65.8736 219.425 65.9883C220.156 66.1013 220.752 66.2367 221.213 66.3946C221.673 66.5356 222.047 66.5912 222.335 66.5615C222.657 66.5282 222.936 66.4053 223.171 66.1927C223.404 65.9631 223.63 65.7429 223.848 65.532C224.081 65.3024 224.35 65.1719 224.655 65.1404C224.858 65.1194 225.053 65.1764 225.238 65.3115C225.421 65.4296 225.592 65.6689 225.749 66.0295L227.927 71.4566C228.13 71.9323 228.215 72.3347 228.18 72.6636C228.161 72.9739 227.996 73.205 227.686 73.3568C227.394 73.5069 227.122 73.5349 226.873 73.4408C226.64 73.3449 226.397 73.1473 226.144 72.848C225.199 71.4897 224.241 70.4239 223.271 69.6506C222.3 68.8772 221.313 68.3539 220.308 68.0808C219.321 67.8059 218.302 67.7226 217.251 67.831C215.845 67.9761 214.808 68.3913 214.143 69.0765C213.492 69.7431 213.219 70.5848 213.324 71.6016C213.387 72.2116 213.597 72.7551 213.955 73.2321C214.311 73.692 214.926 74.091 215.8 74.429C216.689 74.7483 217.942 75.0216 219.558 75.2487C221.71 75.5234 223.443 75.9697 224.757 76.5877C226.088 77.204 227.079 78.0095 227.729 79.0042C228.395 79.9803 228.799 81.1546 228.941 82.5273C229.089 83.9678 228.847 85.2687 228.213 86.4302C227.596 87.59 226.667 88.5422 225.425 89.2869C224.2 90.0299 222.74 90.4888 221.045 90.6636C219.978 90.7737 219.093 90.7451 218.39 90.5778C217.69 90.4275 217.108 90.2648 216.645 90.09C216.196 89.8965 215.811 89.8163 215.489 89.8495C215.167 89.8827 214.882 90.0235 214.634 90.2718C214.385 90.52 214.145 90.7674 213.914 91.014C213.683 91.2605 213.431 91.3977 213.16 91.4257C212.94 91.4484 212.745 91.3914 212.577 91.2546C212.409 91.1179 212.262 90.8589 212.137 90.4779L210.588 85.4226C210.427 84.8569 210.367 84.435 210.406 84.1569C210.446 83.8787 210.604 83.6655 210.88 83.5171C211.154 83.3519 211.409 83.3341 211.645 83.4639C211.898 83.5919 212.171 83.8293 212.463 84.1759C213.783 86.0093 215.113 87.2765 216.452 87.9775C217.79 88.6616 219.103 88.9372 220.391 88.8043ZM244.068 63.1633C246.61 62.901 248.893 63.2049 250.919 64.075C252.959 64.9264 254.618 66.2366 255.897 68.0058C257.174 69.758 257.939 71.8628 258.193 74.32C258.437 76.6925 258.097 78.8685 257.171 80.848C256.244 82.8275 254.854 84.461 253 85.7484C251.162 87.017 248.954 87.7843 246.379 88.05C243.854 88.3105 241.571 88.0151 239.531 87.1637C237.505 86.2936 235.855 84.9825 234.578 83.2303C233.299 81.4611 232.534 79.3564 232.282 76.9161C232.035 74.5266 232.367 72.343 233.276 70.3653C234.202 68.3858 235.593 66.7608 237.449 65.4904C239.303 64.203 241.509 63.4273 244.068 63.1633ZM248.088 85.69C249.206 85.4034 250.066 84.7837 250.67 83.8308C251.272 82.8609 251.593 81.569 251.632 79.9551C251.671 78.3411 251.379 76.4273 250.757 74.2136C250.169 71.9965 249.435 70.1968 248.556 68.8146C247.694 67.4306 246.737 66.4589 245.686 65.8993C244.635 65.3398 243.534 65.2136 242.384 65.5206C241.25 65.809 240.381 66.4381 239.779 67.4079C239.177 68.3778 238.865 69.6688 238.843 71.281C238.819 72.8763 239.11 74.7816 239.715 76.997C240.318 79.1955 241.052 80.9952 241.916 82.3961C242.795 83.7783 243.76 84.7492 244.811 85.3087C245.861 85.8513 246.953 85.9784 248.088 85.69ZM273.266 83.3493C274.436 83.2287 275.312 82.8386 275.894 82.179C276.477 81.5194 276.721 80.7321 276.627 79.817C276.567 79.2408 276.378 78.7294 276.058 78.2829C275.753 77.8177 275.224 77.4269 274.472 77.1106C273.719 76.7773 272.646 76.5111 271.256 76.3121C268.741 76.0063 266.756 75.526 265.301 74.8712C263.844 74.1993 262.791 73.3661 262.14 72.3713C261.506 71.3748 261.123 70.2326 260.99 68.9447C260.752 66.64 261.37 64.7437 262.844 63.2557C264.333 61.7491 266.568 60.842 269.551 60.5343C270.669 60.4189 271.586 60.4185 272.3 60.5333C273.031 60.6463 273.627 60.7817 274.088 60.9396C274.548 61.0805 274.922 61.1362 275.21 61.1064C275.532 61.0732 275.811 60.9503 276.046 60.7377C276.279 60.5081 276.505 60.2878 276.723 60.077C276.956 59.8474 277.225 59.7168 277.53 59.6854C277.733 59.6644 277.928 59.7214 278.113 59.8565C278.296 59.9745 278.467 60.2139 278.624 60.5745L280.802 66.0016C281.005 66.4773 281.09 66.8797 281.055 67.2086C281.036 67.5189 280.871 67.75 280.561 67.9018C280.269 68.0519 279.997 68.0799 279.748 67.9857C279.515 67.8898 279.272 67.6923 279.019 67.393C278.074 66.0347 277.116 64.9689 276.146 64.1956C275.175 63.4222 274.188 62.8989 273.183 62.6258C272.196 62.3508 271.177 62.2676 270.126 62.376C268.72 62.5211 267.684 62.9363 267.018 63.6215C266.367 64.2881 266.094 65.1298 266.199 66.1466C266.262 66.7566 266.472 67.3001 266.83 67.777C267.186 68.237 267.801 68.636 268.675 68.974C269.564 69.2933 270.817 69.5665 272.433 69.7937C274.585 70.0684 276.318 70.5147 277.632 71.1327C278.963 71.749 279.954 72.5545 280.605 73.5492C281.27 74.5253 281.674 75.6996 281.816 77.0723C281.964 78.5127 281.722 79.8137 281.088 80.9752C280.471 82.135 279.542 83.0872 278.3 83.8319C277.075 84.5748 275.615 85.0337 273.92 85.2086C272.853 85.3187 271.968 85.2901 271.266 85.1228C270.565 84.9724 269.983 84.8098 269.52 84.635C269.071 84.4414 268.686 84.3613 268.364 84.3945C268.042 84.4277 267.757 84.5685 267.509 84.8167C267.26 85.065 267.02 85.3124 266.789 85.559C266.558 85.8055 266.306 85.9427 266.035 85.9707C265.815 85.9934 265.621 85.9364 265.452 85.7996C265.284 85.6628 265.137 85.4039 265.012 85.0229L263.463 79.9676C263.302 79.4019 263.242 78.98 263.281 78.7019C263.321 78.4237 263.479 78.2105 263.755 78.0621C264.029 77.8968 264.284 77.8791 264.52 78.0089C264.773 78.1369 265.046 78.3742 265.339 78.7208C266.658 80.5543 267.988 81.8215 269.327 82.5225C270.665 83.2066 271.978 83.4822 273.266 83.3493ZM311.702 81.4392C310.279 81.586 309.049 81.5331 308.012 81.2804C306.975 81.0276 306.125 80.7557 305.462 80.4645C304.815 80.1716 304.347 80.0399 304.059 80.0697C303.771 80.0994 303.52 80.2366 303.305 80.4814C303.108 80.7245 302.914 81.0014 302.723 81.3122C302.533 81.623 302.33 81.9008 302.115 82.1456C301.901 82.3904 301.658 82.5268 301.387 82.5547C301.082 82.5862 300.818 82.5192 300.596 82.3538C300.373 82.1884 300.207 81.9058 300.097 81.5061L297.402 72.8181C297.318 72.5014 297.324 72.2268 297.42 71.9942C297.516 71.7617 297.711 71.5788 298.006 71.4457C298.316 71.2938 298.596 71.2735 298.847 71.3846C299.115 71.4939 299.361 71.7169 299.584 72.0536C300.87 74.0617 302.144 75.6173 303.405 76.7203C304.684 77.8216 305.952 78.5728 307.209 78.974C308.482 79.3565 309.736 79.484 310.973 79.3563C312.736 79.1745 314.078 78.5736 315.001 77.5536C315.921 76.5166 316.299 75.1932 316.132 73.5833C316.026 72.5495 315.701 71.6411 315.158 70.8579C314.613 70.0578 313.674 69.3411 312.341 68.7079C311.007 68.0578 309.105 67.4662 306.635 66.9331C303.953 66.3364 301.775 65.5676 300.103 64.627C298.43 63.6863 297.163 62.5324 296.303 61.1654C295.46 59.7966 294.941 58.1717 294.747 56.2907C294.535 54.2401 294.841 52.3931 295.665 50.7496C296.487 49.0891 297.743 47.7349 299.434 46.6871C301.122 45.6223 303.144 44.9684 305.5 44.7254C306.991 44.5715 308.245 44.6049 309.261 44.8255C310.277 45.046 311.116 45.2935 311.778 45.5677C312.438 45.825 312.955 45.9344 313.327 45.8959C313.683 45.8592 313.971 45.6583 314.19 45.2931C314.409 44.928 314.637 44.562 314.873 44.195C315.126 43.8264 315.456 43.6211 315.863 43.5791C316.168 43.5477 316.433 43.6231 316.657 43.8055C316.88 43.9709 317.094 44.3084 317.301 44.8181L320.687 53.486C320.826 53.8314 320.85 54.1542 320.761 54.4546C320.671 54.7379 320.479 54.9547 320.186 55.1048C319.875 55.2397 319.586 55.2609 319.319 55.1685C319.051 55.0592 318.816 54.8523 318.613 54.5478C317.226 52.3958 315.848 50.7397 314.478 49.5794C313.106 48.4021 311.749 47.6088 310.405 47.1994C309.061 46.79 307.736 46.6526 306.432 46.7872C304.686 46.9673 303.34 47.6199 302.395 48.7451C301.449 49.8703 301.064 51.2887 301.241 53.0003C301.346 54.0171 301.672 54.9425 302.221 55.7765C302.768 56.5935 303.693 57.3459 304.997 58.0334C306.299 58.704 308.137 59.3365 310.511 59.9308C313.271 60.6223 315.488 61.4384 317.16 62.379C318.831 63.3028 320.076 64.4075 320.893 65.6933C321.711 66.9791 322.201 68.4871 322.362 70.2174C322.553 72.0646 322.26 73.7988 321.486 75.4202C320.726 77.0228 319.52 78.3633 317.867 79.4415C316.231 80.518 314.176 81.1839 311.702 81.4392ZM348.483 62.1276C348.56 62.8732 348.408 63.4713 348.026 63.9217C347.66 64.3534 347.07 64.6112 346.256 64.6952L330.42 66.329L330.252 64.7021L340.547 63.64C341.276 63.5648 341.605 63.1883 341.535 62.5104C341.287 60.104 340.693 58.3327 339.754 57.1965C338.814 56.0603 337.684 55.5603 336.362 55.6967C335.328 55.8034 334.455 56.2189 333.742 56.9433C333.029 57.6677 332.507 58.672 332.177 59.9563C331.862 61.2219 331.797 62.7444 331.98 64.5238C332.323 67.8453 333.343 70.2578 335.039 71.7612C336.736 73.2646 338.838 73.8869 341.346 73.6281C342.905 73.4673 344.217 72.9894 345.283 72.1944C346.365 71.3976 347.106 70.3621 347.506 69.0877C347.698 68.7939 347.865 68.5882 348.007 68.4708C348.149 68.3534 348.297 68.2868 348.449 68.2711C348.653 68.2501 348.816 68.336 348.938 68.5289C349.059 68.7048 349.134 68.9368 349.164 69.2249C349.25 70.7232 348.891 72.139 348.087 73.4722C347.28 74.7885 346.128 75.9008 344.629 76.8091C343.128 77.7003 341.369 78.25 339.352 78.4581C336.98 78.7028 334.828 78.4282 332.896 77.6341C330.98 76.8213 329.404 75.5795 328.17 73.9085C326.951 72.2188 326.218 70.1708 325.969 67.7644C325.709 65.2393 325.979 62.9593 326.779 60.9242C327.578 58.8722 328.844 57.2002 330.578 55.9081C332.328 54.6143 334.491 53.8345 337.067 53.5687C339.236 53.3449 341.143 53.5678 342.788 54.2373C344.431 54.8899 345.743 55.9021 346.724 57.2738C347.704 58.6455 348.291 60.2635 348.483 62.1276ZM360.807 62.1921C360.559 59.7857 360.689 57.7341 361.199 56.0373C361.726 54.3387 362.499 53.0259 363.516 52.0988C364.549 51.1531 365.684 50.6164 366.921 50.4888C368.463 50.3297 369.696 50.6564 370.619 51.4688C371.557 52.2626 372.112 53.4899 372.283 55.1507C372.434 56.6081 372.233 57.7335 371.681 58.5269C371.144 59.3016 370.385 59.7396 369.402 59.841C368.436 59.9407 367.672 59.754 367.109 59.2812C366.563 58.8065 366.233 58.0956 366.118 57.1483L366.024 56.2332C365.953 55.7096 365.785 55.333 365.522 55.1032C365.274 54.8548 364.887 54.7577 364.361 54.8119C363.785 54.8713 363.251 55.1748 362.76 55.7222C362.268 56.2696 361.905 57.0691 361.671 58.1209C361.437 59.1726 361.401 60.4781 361.562 62.0371L360.807 62.1921ZM360.286 52.6633L361.249 59.0122L362.579 71.9C362.621 72.3067 362.738 72.6115 362.93 72.8143C363.138 72.9984 363.466 73.1101 363.915 73.1494L366.189 73.2745C366.533 73.2904 366.789 73.3667 366.958 73.5035C367.124 73.6233 367.221 73.8188 367.249 74.09C367.277 74.3611 367.198 74.5834 367.01 74.7569C366.839 74.9287 366.568 75.0338 366.195 75.0722L354.451 76.2838C354.078 76.3223 353.791 76.2749 353.588 76.1416C353.386 76.0083 353.271 75.8061 353.243 75.535C353.222 75.3316 353.264 75.156 353.369 75.0082C353.489 74.8417 353.679 74.6936 353.939 74.564L355.006 74.197C355.286 74.0825 355.483 73.9167 355.597 73.6993C355.71 73.465 355.744 73.1276 355.698 72.687L354.101 57.2063C354.064 56.8505 353.979 56.6024 353.845 56.4621C353.708 56.3049 353.511 56.214 353.251 56.1893L351.82 56.2599C351.577 56.2336 351.391 56.1672 351.26 56.0608C351.127 55.9375 351.051 55.7826 351.032 55.5962C351.008 55.3589 351.056 55.1655 351.178 55.016C351.314 54.8477 351.555 54.6859 351.898 54.5306L356.959 52.2872C357.611 51.9631 358.086 51.7514 358.384 51.6522C358.697 51.5342 358.947 51.4656 359.133 51.4464C359.438 51.4149 359.677 51.493 359.851 51.6806C360.041 51.8665 360.186 52.1941 360.286 52.6633ZM389.678 72.8293L387.111 73.0942C386.67 73.1397 386.286 73.068 385.958 72.8791C385.631 72.6903 385.349 72.3682 385.114 71.913L375.638 53.777C375.358 53.2235 375.114 52.8462 374.905 52.6452C374.713 52.4423 374.487 52.3286 374.227 52.304L373.34 52.1644C373.06 52.1076 372.853 52.0176 372.721 51.8943C372.588 51.7709 372.51 51.5906 372.485 51.3534C372.457 51.0822 372.529 50.8693 372.702 50.7145C372.889 50.541 373.153 50.4367 373.492 50.4018L384.88 49.2269C385.608 49.1517 386.002 49.3937 386.059 49.953C386.082 50.1733 386.033 50.3667 385.914 50.5332C385.809 50.681 385.599 50.8054 385.284 50.9064L384.314 51.212C383.535 51.4637 383.08 51.7846 382.949 52.175C382.833 52.5466 382.991 53.164 383.422 54.0272L390.97 68.9195L389.597 70.2944L394.041 53.1115C394.299 52.1258 394.322 51.4383 394.111 51.0491C393.899 50.6599 393.396 50.4292 392.601 50.3571L391.563 50.2586C391.234 50.2241 390.995 50.146 390.845 50.0244C390.696 49.9028 390.609 49.7234 390.584 49.4862C390.556 49.215 390.628 49.002 390.801 48.8472C390.988 48.6737 391.252 48.5695 391.591 48.5345L398.428 47.8291C398.767 47.7941 399.038 47.8433 399.24 47.9766C399.44 48.0929 399.555 48.2866 399.583 48.5578C399.604 48.7612 399.563 48.9452 399.46 49.11C399.372 49.256 399.172 49.388 398.858 49.506L398.063 49.7678C397.733 49.8875 397.453 50.1647 397.224 50.5994C396.993 51.0172 396.748 51.7104 396.488 52.6792L391.38 71.3949C391.244 71.9056 391.024 72.2623 390.72 72.465C390.415 72.6677 390.068 72.7891 389.678 72.8293ZM410.905 47.3897L412.9 66.7341C412.948 67.1917 413.05 67.5236 413.209 67.7299C413.367 67.9363 413.595 68.0669 413.891 68.1219L414.985 68.266C415.265 68.3227 415.472 68.4213 415.607 68.5615C415.758 68.7001 415.844 68.871 415.865 69.0744C415.893 69.3455 415.822 69.567 415.651 69.7387C415.48 69.9105 415.2 70.0165 414.81 70.0567L404.744 71.0952C404.371 71.1336 404.084 71.0862 403.882 70.9529C403.696 70.8179 403.59 70.6148 403.562 70.3437C403.541 70.1403 403.583 69.9647 403.687 69.8169C403.79 69.6522 403.973 69.5134 404.235 69.4007L405.3 69.0083C405.579 68.8939 405.776 68.728 405.89 68.5106C406.003 68.2764 406.036 67.9304 405.989 67.4729L404.392 51.9923C404.355 51.6364 404.27 51.3883 404.135 51.248C404.016 51.089 403.828 51.0057 403.57 50.9981L402.164 51.066C401.888 51.0432 401.684 50.9785 401.553 50.8722C401.437 50.7471 401.369 50.5829 401.348 50.3795C401.325 50.1592 401.375 49.9743 401.496 49.8247C401.616 49.6582 401.856 49.4879 402.214 49.3139L407.344 46.9864C407.865 46.7271 408.274 46.5393 408.57 46.4231C408.883 46.3052 409.158 46.234 409.396 46.2095C409.853 46.1623 410.205 46.2544 410.452 46.4859C410.714 46.6987 410.865 46.9999 410.905 47.3897ZM406.468 42.7351C405.18 42.8679 404.102 42.628 403.234 42.0154C402.383 41.401 401.9 40.5346 401.784 39.4161C401.669 38.2977 401.965 37.3508 402.673 36.5756C403.398 35.7986 404.404 35.3437 405.692 35.2108C406.997 35.0762 408.083 35.3152 408.952 35.9278C409.82 36.5405 410.311 37.406 410.427 38.5245C410.542 39.643 410.238 40.5907 409.513 41.3677C408.788 42.1446 407.773 42.6004 406.468 42.7351ZM439.257 49.8853C439.353 50.8173 439.113 51.6386 438.535 52.349C437.956 53.0424 437.133 53.4442 436.065 53.5544C435.014 53.6628 434.179 53.4493 433.558 52.9138C432.938 52.3784 432.577 51.6192 432.476 50.6363L432.368 49.5941C432.249 48.4418 431.816 47.5616 431.068 46.9537C430.32 46.3458 429.37 46.1012 428.218 46.2201C427.167 46.3285 426.261 46.756 425.498 47.5026C424.753 48.2474 424.206 49.2544 423.858 50.5235C423.509 51.7926 423.423 53.2829 423.6 54.9945C423.822 57.1467 424.357 58.9327 425.206 60.3523C426.069 61.7532 427.151 62.772 428.45 63.4087C429.764 64.0267 431.209 64.2544 432.785 64.0918C434.259 63.9397 435.507 63.5027 436.529 62.7807C437.55 62.0588 438.281 61.0927 438.722 59.8827C438.929 59.5701 439.096 59.3645 439.223 59.2658C439.365 59.1483 439.521 59.0809 439.69 59.0634C439.911 59.0407 440.074 59.1266 440.179 59.3212C440.3 59.4972 440.375 59.7207 440.403 59.9918C440.404 61.4989 440.009 62.9012 439.218 64.1988C438.444 65.4947 437.331 66.5687 435.877 67.4208C434.44 68.2712 432.748 68.797 430.799 68.998C428.46 69.2393 426.335 68.9705 424.422 68.1916C422.526 67.411 420.969 66.1843 419.752 64.5116C418.534 62.8388 417.8 60.7823 417.548 58.342C417.295 55.8848 417.593 53.6276 418.442 51.5703C419.292 49.5131 420.599 47.8197 422.363 46.4902C424.143 45.159 426.305 44.3623 428.847 44.1C430.863 43.892 432.623 44.0187 434.127 44.4801C435.647 44.9398 436.85 45.6464 437.737 46.5997C438.621 47.536 439.128 48.6312 439.257 49.8853ZM429.797 68.2536L431.399 68.0884L429.748 72.0095L428.725 71.8067C429.01 71.7431 429.311 71.6777 429.63 71.6106C429.95 71.5604 430.347 71.5109 430.822 71.4619C432.432 71.2958 433.713 71.5147 434.666 72.1186C435.619 72.7225 436.156 73.6091 436.276 74.7784C436.406 76.0325 436.018 77.0915 435.114 77.9555C434.227 78.8177 432.927 79.3371 431.216 79.5137C429.792 79.6606 428.604 79.5177 427.652 79.085C426.7 78.6523 426.118 78.0786 425.907 77.3639C425.866 77.1284 425.905 76.9274 426.025 76.7609C426.145 76.5944 426.298 76.5015 426.484 76.4823C426.684 76.4274 426.856 76.4354 427.001 76.5061C427.162 76.5751 427.308 76.6628 427.439 76.7692C427.779 77.2479 428.199 77.5813 428.698 77.7696C429.197 77.9579 429.718 78.0241 430.26 77.9682C431.65 77.8248 432.255 76.8888 432.077 75.1603C432 74.4147 431.735 73.8425 431.283 73.4439C430.85 73.0604 430.243 72.9089 429.464 72.9893L428.752 73.0628C428.447 73.0942 428.242 73.0126 428.136 72.818C428.032 72.6404 428.035 72.4174 428.144 72.1493L429.797 68.2536ZM454.724 41.4303C457.266 41.168 459.55 41.472 461.575 42.342C463.615 43.1934 465.274 44.5037 466.553 46.2728C467.83 48.025 468.595 50.1298 468.849 52.587C469.093 54.9595 468.753 57.1355 467.827 59.115C466.9 61.0945 465.51 62.728 463.657 64.0154C461.818 65.2841 459.611 66.0513 457.035 66.317C454.51 66.5775 452.227 66.2821 450.187 65.4307C448.162 64.5606 446.511 63.2495 445.234 61.4973C443.955 59.7281 443.19 57.6234 442.938 55.1831C442.692 52.7936 443.023 50.61 443.932 48.6323C444.858 46.6528 446.249 45.0278 448.105 43.7574C449.959 42.47 452.165 41.6943 454.724 41.4303ZM458.744 63.957C459.862 63.6704 460.723 63.0507 461.326 62.0978C461.929 61.1279 462.249 59.836 462.288 58.2221C462.327 56.6081 462.036 54.6943 461.413 52.4807C460.825 50.2635 460.091 48.4638 459.212 47.0816C458.35 45.6976 457.393 44.7259 456.342 44.1664C455.291 43.6068 454.191 43.4806 453.041 43.7877C451.906 44.076 451.037 44.7051 450.435 45.675C449.833 46.6448 449.521 47.9358 449.499 49.548C449.475 51.1433 449.766 53.0486 450.371 55.264C450.975 57.4625 451.708 59.2622 452.572 60.6631C453.451 62.0453 454.416 63.0162 455.467 63.5757C456.517 64.1183 457.609 64.2454 458.744 63.957ZM483.922 61.6163C485.092 61.4957 485.968 61.1056 486.551 60.446C487.133 59.7864 487.377 58.9991 487.283 58.084C487.224 57.5078 487.034 56.9965 486.714 56.5499C486.409 56.0847 485.88 55.6939 485.128 55.3776C484.375 55.0443 483.303 54.7781 481.912 54.5791C479.397 54.2733 477.412 53.793 475.957 53.1382C474.501 52.4664 473.447 51.6331 472.796 50.6383C472.163 49.6419 471.779 48.4996 471.646 47.2117C471.409 44.907 472.026 43.0107 473.5 41.5228C474.989 40.0161 477.224 39.109 480.207 38.8013C481.325 38.6859 482.242 38.6855 482.956 38.8003C483.687 38.9133 484.283 39.0487 484.745 39.2066C485.204 39.3476 485.578 39.4032 485.867 39.3735C486.189 39.3402 486.467 39.2173 486.702 39.0047C486.935 38.7751 487.161 38.5549 487.379 38.344C487.612 38.1144 487.881 37.9839 488.186 37.9524C488.39 37.9314 488.584 37.9884 488.769 38.1235C488.952 38.2416 489.123 38.4809 489.28 38.8415L491.458 44.2686C491.661 44.7443 491.746 45.1467 491.711 45.4756C491.692 45.7859 491.527 46.017 491.218 46.1688C490.925 46.3189 490.654 46.3469 490.404 46.2527C490.172 46.1568 489.929 45.9593 489.675 45.66C488.73 44.3017 487.772 43.2359 486.802 42.4626C485.831 41.6892 484.844 41.1659 483.84 40.8928C482.852 40.6179 481.833 40.5346 480.782 40.643C479.376 40.7881 478.34 41.2033 477.674 41.8885C477.023 42.5551 476.751 43.3968 476.855 44.4136C476.918 45.0236 477.129 45.5671 477.486 46.0441C477.842 46.504 478.457 46.903 479.331 47.241C480.22 47.5603 481.473 47.8336 483.089 48.0607C485.241 48.3354 486.974 48.7817 488.288 49.3997C489.619 50.016 490.61 50.8215 491.261 51.8162C491.927 52.7923 492.33 53.9666 492.472 55.3393C492.621 56.7797 492.378 58.0807 491.744 59.2422C491.127 60.402 490.198 61.3542 488.956 62.0989C487.731 62.8419 486.271 63.3007 484.577 63.4756C483.509 63.5857 482.624 63.5571 481.922 63.3898C481.221 63.2394 480.639 63.0768 480.176 62.902C479.728 62.7084 479.343 62.6283 479.021 62.6615C478.699 62.6947 478.413 62.8355 478.165 63.0837C477.917 63.332 477.677 63.5794 477.445 63.826C477.214 64.0725 476.962 64.2097 476.691 64.2377C476.471 64.2604 476.277 64.2034 476.108 64.0666C475.94 63.9298 475.794 63.6709 475.669 63.2899L474.119 58.2346C473.958 57.6689 473.898 57.247 473.938 56.9689C473.977 56.6907 474.135 56.4775 474.411 56.3291C474.685 56.1638 474.94 56.1461 475.176 56.2759C475.429 56.4039 475.702 56.6412 475.995 56.9878C477.314 58.8213 478.644 60.0885 479.984 60.7895C481.322 61.4736 482.634 61.7492 483.922 61.6163Z" fill="#5C2574"/>
</svg>
